<svg width="81" height="80" viewBox="0 0 81 80" fill="none" xmlns="http://www.w3.org/2000/svg">
<path d="M68.7102 15.7222L63.5467 73.5658L40.3369 80.0003L17.1909 73.5748L12.033 15.7222H68.7102Z" fill="#A9AEB8"/>
<path d="M25.3716 0H33.9653V3.59375H28.9653V7.1875H33.9653V10.7812H25.3716V0Z" fill="#A9AEB8"/>
<path d="M35.6841 0H44.2778V3.125H39.2778V3.75H44.2778V10.9375H35.6841V7.65625H40.6841V7.03125H35.6841V0Z" fill="#A9AEB8"/>
<path d="M45.9966 0H54.5903V3.125H49.5903V3.75H54.5903V10.9375H45.9966V7.65625H50.9966V7.03125H45.9966V0Z" fill="#A9AEB8"/>
<path d="M23.8574 41.9087L24.4934 49.004H40.3715V41.9087H23.8574Z" fill="white"/>
<path d="M40.3715 27.5479H40.3469H22.5796L23.2246 34.6433H40.3715V27.5479Z" fill="white"/>
<path d="M40.3716 67.7188V60.3366L40.3405 60.3449L32.4384 58.2111L31.9332 52.5522H28.0934H24.8105L25.8046 63.693L40.339 67.7279L40.3716 67.7188Z" fill="white"/>
<path d="M49.0841 49.0044L48.2605 58.2066L40.3469 60.3425V67.7244L54.8929 63.693L54.9996 62.4943L56.6669 43.8144L56.84 41.9091L58.121 27.5479H40.3469V34.6433H50.345L49.6994 41.9091H40.3469V49.0044H49.0841Z" fill="white"/>
</svg>
