<svg width="81" height="80" viewBox="0 0 81 80" fill="none" xmlns="http://www.w3.org/2000/svg">
<path d="M30.9439 68.5716C36.2189 68.5716 40.5 64.3049 40.5 59.0478V49.5239H30.9439C25.6689 49.5239 21.3877 53.7906 21.3877 59.0478C21.3877 64.3049 25.6689 68.5716 30.9439 68.5716Z" fill="white" stroke="#001640" stroke-width="4" stroke-linejoin="round"/>
<path d="M21.3877 39.9999C21.3877 34.7427 25.6689 30.4761 30.9439 30.4761H40.5V49.5237H30.9439C25.6689 49.5237 21.3877 45.257 21.3877 39.9999Z" fill="white" stroke="#001640" stroke-width="4" stroke-linejoin="round"/>
<path d="M21.3877 20.9525C21.3877 15.6954 25.6689 11.4287 30.9439 11.4287H40.5V30.4764H30.9439C25.6689 30.4764 21.3877 26.2097 21.3877 20.9525Z" fill="white" stroke="#001640" stroke-width="4" stroke-linejoin="round"/>
<path d="M40.5 11.4287H50.0562C55.3312 11.4287 59.6124 15.6954 59.6124 20.9525C59.6124 26.2097 55.3312 30.4764 50.0562 30.4764H40.5V11.4287Z" fill="white" stroke="#001640" stroke-width="4" stroke-linejoin="round"/>
<path d="M59.6124 39.9999C59.6124 45.257 55.3312 49.5237 50.0562 49.5237C44.7812 49.5237 40.5 45.257 40.5 39.9999C40.5 34.7427 44.7812 30.4761 50.0562 30.4761C55.3312 30.4761 59.6124 34.7427 59.6124 39.9999Z" fill="white" stroke="#001640" stroke-width="4" stroke-linejoin="round"/>
</svg>
