<svg width="81" height="80" viewBox="0 0 81 80" fill="none" xmlns="http://www.w3.org/2000/svg">
<circle cx="40.5" cy="40.7019" r="33.0666" fill="white"/>
<path d="M40.5019 12.1322C24.717 12.1322 11.9287 24.9312 11.9287 40.7054C11.9287 53.3365 20.1149 64.0425 31.4603 67.8196C32.8943 68.0892 33.4122 67.2052 33.4122 66.4409C33.4122 65.7623 33.3961 63.9675 33.3854 61.5852C25.4331 63.3068 23.758 57.7439 23.758 57.7439C22.4562 54.4509 20.5775 53.5669 20.5775 53.5669C17.9916 51.8007 20.7828 51.8382 20.7828 51.8382C23.6473 52.0329 25.1545 54.7759 25.1545 54.7759C27.7029 59.1476 31.8407 57.8832 33.4783 57.1475C33.7283 55.3063 34.473 54.0401 35.2837 53.3347C28.9405 52.6186 22.2704 50.1631 22.2704 39.2142C22.2704 36.0872 23.3776 33.5406 25.2081 31.5405C24.892 30.8244 23.9241 27.9135 25.4599 23.9775C25.4599 23.9775 27.8511 23.215 33.3175 26.9081C35.6052 26.2741 38.0339 25.958 40.4609 25.9419C42.8896 25.958 45.3165 26.2759 47.6042 26.9081C53.0384 23.215 55.4279 23.9775 55.4279 23.9775C56.9619 27.9135 55.994 30.8226 55.7154 31.5405C57.528 33.5406 58.6352 36.089 58.6352 39.2142C58.6352 50.1881 51.9562 52.6079 45.6058 53.3062C46.5987 54.1616 47.5291 55.9206 47.5291 58.5904C47.5291 62.4121 47.4934 65.4908 47.4934 66.4213C47.4934 67.1642 47.9935 68.0571 49.465 67.7696C60.8943 64.0318 69.0716 53.3169 69.0716 40.7036C69.0716 24.9294 56.2833 12.1304 40.4984 12.1304L40.5019 12.1322Z" fill="#A9AEB8"/>
</svg>
