<svg width="80" height="80" viewBox="0 0 80 80" fill="none" xmlns="http://www.w3.org/2000/svg">
<path d="M16.9375 0H20.5312V3.5625H23.8438V0H27.4375V10.7812H23.8438V7.1875H20.5625V10.7812H16.9375V0ZM32.1875 3.59375H29.0156V0H38.9688V3.59375H35.7812V10.7812H32.1875V3.59375ZM40.5469 0H44.3125L46.625 3.79687L48.9375 0H52.7031V10.7812H49.1094V5.4375L46.5938 9.3125L44.0781 5.4375V10.7812H40.5469V0ZM54.4844 0H58.0781V7.21875H63.1719V10.7812H54.4844" fill="#001640"/>
<path d="M16.8125 73.5937L11.6562 15.7188H68.3437L63.1875 73.5625L39.9531 80" fill="#001640"/>
<path d="M22.1875 27.5469H40V34.6406H29.9688L30.625 41.9063H40V48.9844H24.125L22.1875 27.5469ZM24.4375 52.5469H31.5625L32.0625 58.2188L40 60.3438V67.75L25.4375 63.6875" fill="white"/>
<path d="M57.75 27.5469H39.9688V34.6406H57.0938L57.75 27.5469ZM56.4531 41.9063H39.9688V49H48.7188L47.8906 58.2188L39.9688 60.3438V67.7188L54.5 63.6875" fill="white"/>
</svg>
