<svg width="19" height="15" viewBox="0 0 19 15" fill="none" xmlns="http://www.w3.org/2000/svg">
<path d="M17.0672 0.666504H2.66719C1.67719 0.666504 0.876187 1.44483 0.876187 2.39611L0.867188 12.7738C0.867188 13.725 1.67719 14.5034 2.66719 14.5034H17.0672C18.0572 14.5034 18.8672 13.725 18.8672 12.7738V2.39611C18.8672 1.44483 18.0572 0.666504 17.0672 0.666504ZM16.7072 4.34192L10.3442 8.16436C10.0562 8.33732 9.67819 8.33732 9.39019 8.16436L3.02719 4.34192C2.80219 4.20355 2.66719 3.97006 2.66719 3.71926C2.66719 3.13984 3.32419 2.79392 3.83719 3.0966L9.86719 6.72013L15.8972 3.0966C16.4102 2.79392 17.0672 3.13984 17.0672 3.71926C17.0672 3.97006 16.9322 4.20355 16.7072 4.34192Z" fill="#001640"/>
</svg>
