<svg width="18" height="18" viewBox="0 0 18 18" fill="none" xmlns="http://www.w3.org/2000/svg">
<path fill-rule="evenodd" clip-rule="evenodd" d="M2 0C0.895431 0 0 0.895431 0 2V15.2961C0 16.4007 0.89543 17.2961 2 17.2961H16C17.1046 17.2961 18 16.4007 18 15.2961V2C18 0.895431 17.1046 0 16 0H2ZM5.37529 3.24288C4.67432 3.24288 4.32384 3.55747 4.32384 4.18665C4.32384 4.82005 4.67432 5.13675 5.37529 5.13675C5.72577 5.13675 5.98757 5.05441 6.1607 4.88972C6.33806 4.72082 6.42673 4.48646 6.42673 4.18665C6.42673 3.55747 6.07625 3.24288 5.37529 3.24288ZM4.40618 13.0986H6.33806V6.01718H4.40618V13.0986ZM12.7167 13.0986H14.6485V8.48111C14.6485 7.6408 14.4353 6.99895 14.0088 6.55557C13.5823 6.10797 12.9574 5.88416 12.1339 5.88416C11.6526 5.88416 11.2218 5.97284 10.8418 6.15019C10.466 6.32332 10.1704 6.58091 9.95503 6.92294H9.84736L9.58766 6.01718H8.11183V13.0986H10.0437V9.76692C10.0437 8.93083 10.1641 8.33332 10.4047 7.97439C10.6454 7.61124 11.036 7.42966 11.5765 7.42966C11.9735 7.42966 12.2627 7.55846 12.4443 7.81604C12.6259 8.0694 12.7167 8.45155 12.7167 8.9625V13.0986Z" fill="#001640"/>
</svg>
