<svg width="80" height="80" viewBox="0 0 80 80" fill="none" xmlns="http://www.w3.org/2000/svg">
<path d="M71.4006 8.59961H8.59937V71.4008H71.4006V8.59961Z" fill="#001640"/>
<path d="M50.7858 57.6631C52.0508 59.7285 53.6966 61.2467 56.6074 61.2467C59.0527 61.2467 60.6147 60.0246 60.6147 58.3359C60.6147 56.3123 59.0098 55.5956 56.3183 54.4183L54.843 53.7853C50.5845 51.9711 47.7554 49.6983 47.7554 44.8935C47.7554 40.4675 51.1277 37.0981 56.3981 37.0981C60.1502 37.0981 62.8476 38.404 64.7915 41.8232L60.196 44.7738C59.1842 42.9596 58.0927 42.2449 56.3981 42.2449C54.6695 42.2449 53.574 43.3414 53.574 44.7738C53.574 46.5442 54.6705 47.261 57.2025 48.3575L58.6778 48.9895C63.692 51.1397 66.523 53.3318 66.523 58.2602C66.523 63.5733 62.3492 66.4841 56.744 66.4841C51.2633 66.4841 47.7225 63.8724 45.99 60.4492L50.7858 57.6631ZM29.9388 58.1744C30.8659 59.8192 31.7092 61.2098 33.7368 61.2098C35.6756 61.2098 36.8988 60.4512 36.8988 57.5016V37.4351H42.8001V57.5813C42.8001 63.692 39.2174 66.4732 33.988 66.4732C29.2629 66.4732 26.5266 64.0279 25.135 61.0827L29.9388 58.1744Z" fill="white"/>
</svg>
