<svg width="1109" height="506" viewBox="0 0 1109 506" fill="none" xmlns="http://www.w3.org/2000/svg">
  <path d="M423.173 430.904C385.192 390.266 378.695 316.381 380.195 284.519C509.796 269.953 769 252.62 769 299.813C769 358.804 754.008 393.762 739.515 422.165C725.022 450.568 666.551 502.458 588.091 505.736C509.63 509.013 470.649 481.702 423.173 430.904Z" fill="#001640" fill-opacity="0.05" />
  <path d="M775.726 274.5C774.726 144 670.226 81.5 575.726 78C461.726 83 383.226 155.5 377.226 274.5C371.226 393.5 485.726 474 575.726 475.5C665.726 477 776.726 405 775.726 274.5Z" fill="#FD828E" />
  <path d="M430.731 275.574C431.23 211.523 475.65 128.04 571.433 124.502C594.154 125.27 631.09 132.426 662.267 152.739C693.339 172.984 718.726 206.287 718.726 259.79C718.726 311.569 707.375 351.665 683.853 378.793C660.401 405.841 624.406 420.5 573.967 420.5C523.57 420.5 487.73 400.188 464.498 372.02C441.195 343.768 430.482 307.485 430.731 275.574Z" fill="#FD9BA4" stroke="#FDAAB2" stroke-width="6" />
  <path d="M565.151 253.503C563.013 245.501 569.428 241.234 573.704 237.5C629.653 255.814 738.663 295.11 742.084 316.448C746.361 343.119 728.186 346.853 719.634 354.855C712.812 361.237 715.892 355.921 689.699 368.724C663.507 381.526 666.714 377.792 651.747 362.856C636.78 347.92 634.642 338.318 626.623 321.782C618.605 305.246 603.104 310.58 594.016 303.645C584.929 296.711 572.981 284.756 569.962 279.108C565.685 271.106 567.289 261.504 565.151 253.503Z" fill="#001640" fill-opacity="0.1" />
  <path d="M408 283.127C404.925 275.772 408 277.61 411.076 272.094L482.43 204.057C514.212 179.335 581.711 130.013 597.459 130.504C617.143 131.117 613.452 139.698 613.452 148.279C613.452 156.86 614.067 162.377 613.452 166.667C612.837 170.958 605.455 170.958 605.455 175.862C605.455 180.765 597.459 182.604 590.077 186.282C582.695 189.959 591.307 194.25 585.156 200.379C579.005 206.509 580.235 201.605 569.778 208.961C559.321 216.316 569.778 218.768 564.242 221.219C558.706 223.671 556.86 227.962 554.4 229.801C551.939 231.64 550.709 237.769 543.328 248.189C535.946 258.609 545.173 258.609 537.792 269.029C530.41 279.449 534.716 272.094 527.95 272.094C521.183 272.094 516.877 269.029 512.571 265.964C508.266 262.9 503.96 272.094 500.884 269.029C497.808 265.964 488.582 267.19 482.43 265.964C476.279 264.739 493.503 272.094 475.049 272.094C465.207 272.094 470.128 272.094 463.362 277.61C456.595 283.127 467.052 283.127 463.362 293.547C459.671 303.967 454.135 283.127 447.368 287.417C440.602 291.708 442.447 291.095 427.684 293.547C412.921 295.999 411.076 290.482 408 283.127Z" fill="#001640" fill-opacity="0.1" />
  <path d="M455.153 277.215C453.31 281.516 463.752 280.902 446.554 283.974C443.483 281.516 441.64 283.974 439.183 286.431C436.726 288.889 437.341 290.732 434.884 288.889C432.427 287.046 434.884 285.817 427.513 288.889C420.142 291.961 424.442 291.961 420.757 290.732C417.071 289.503 420.757 285.817 419.528 280.902C418.3 275.986 414.614 283.974 412.157 281.516C409.701 279.058 409.086 280.287 407.244 277.215C405.401 274.143 412.158 269.842 414.614 267.999C417.071 266.156 409.086 267.999 409.086 264.005C409.086 260.011 414 259.397 412.157 255.096C410.315 250.795 409.7 259.397 407.244 250.181C401.101 242.193 415.229 245.265 420.757 245.265C426.285 245.265 434.884 235.434 431.198 232.977C427.513 230.519 425.67 226.833 427.513 221.303C429.356 215.773 432.427 221.303 434.884 214.544C437.34 207.785 428.741 212.086 427.513 212.086C426.285 212.086 430.584 206.557 434.884 203.485C439.183 200.412 439.183 201.641 439.183 198.569C439.183 195.497 433.655 195.497 434.884 189.353C436.112 183.209 439.183 188.738 441.64 186.281C444.097 183.823 441.64 180.751 441.64 177.064C441.64 173.378 446.554 173.992 453.31 172.149C460.067 170.306 464.981 169.077 464.981 165.39C464.981 161.704 448.397 172.764 461.295 156.789C464.366 150.644 464.981 154.331 470.509 154.945C476.037 155.56 473.58 151.873 474.808 147.572C476.037 143.271 483.407 140.199 492.621 140.199C501.834 140.199 494.463 134.669 498.149 131.597C501.834 128.525 502.448 130.983 505.519 127.911C508.59 124.839 511.047 127.911 512.276 127.911C513.504 127.911 516.575 126.682 523.332 122.381C530.088 118.08 532.545 126.682 534.388 124.224C535.862 122.258 540.325 118.08 542.373 116.237C545.444 118.285 552.323 122.75 555.271 124.224C558.957 126.068 558.957 122.381 562.028 118.08C565.099 113.779 565.713 115.622 568.17 118.08C570.627 120.538 570.013 122.381 574.926 119.309C579.84 116.237 576.769 113.779 585.982 119.309C592.125 126.068 593.353 119.309 595.81 122.381C598.267 125.453 602.566 126.068 604.409 130.983C606.252 135.898 603.795 134.669 604.409 140.199C604.9 144.623 607.48 146.958 608.709 147.572C607.89 149.416 606.743 154.7 608.709 161.09C611.166 169.077 608.709 167.234 606.252 169.077C603.795 170.92 603.795 175.836 588.439 180.751C580.454 181.365 587.211 187.51 584.14 193.039C581.069 198.569 579.226 193.654 572.469 198.569C572.469 202.256 569.398 204.099 565.713 203.485C562.028 202.87 560.799 204.713 555.271 212.086C555.885 216.387 554.657 218.845 551.586 221.303C548.515 223.76 547.901 224.375 547.286 226.833C546.672 229.29 546.672 232.362 542.373 237.892C538.073 243.422 537.459 240.964 536.845 245.265C536.23 249.566 536.23 252.024 532.545 259.397C528.86 266.77 520.875 254.481 520.875 260.626C520.875 265.541 515.142 262.674 512.276 260.626C511.457 258.373 507.73 255.219 499.377 260.626C496.306 266.77 495.077 267.999 481.565 260.626C476.651 253.253 477.879 267.999 464.981 272.914C454.539 272.914 461.909 265.541 458.224 267.999C454.539 270.456 456.996 272.914 455.153 277.215Z" fill="#FFF5ED" />
  <path d="M520.864 249.966C518.406 252.424 515.949 247.508 513.491 243.207C511.734 240.134 515.334 232.76 516.563 236.447C517.792 240.134 520.864 238.905 520.864 243.207C520.864 247.508 523.321 247.508 520.864 249.966Z" fill="#001640" fill-opacity="0.1" />
  <path d="M491.99 249.966C499.976 251.81 495.676 249.966 498.133 243.207C497.314 242.592 495.307 241.732 493.833 243.207C491.99 245.05 490.147 243.207 489.532 241.363C488.918 239.52 485.846 238.905 484.003 243.207C482.16 247.508 484.003 248.123 491.99 249.966Z" fill="#001640" fill-opacity="0.1" />
  <path d="M467.416 262.256C471.102 264.099 468.645 261.027 469.873 257.34C467.416 255.496 465.573 257.34 463.73 259.183C461.887 261.027 461.887 258.569 460.044 259.798C458.201 261.027 456.972 261.641 456.972 263.485C456.972 265.328 457.587 264.099 461.273 263.485C464.959 262.87 461.887 261.027 467.416 262.256Z" fill="#001640" fill-opacity="0.1" />
  <path d="M445.914 276.389C445.3 278.847 446.529 279.462 443.457 279.462C437.928 279.462 443.457 275.775 445.914 276.389Z" fill="#001640" fill-opacity="0.1" />
  <path d="M425.027 286.221C425.027 288.679 426.255 287.45 428.713 283.763C430.556 284.531 434.242 284.992 436.699 284.378C439.156 283.763 436.699 279.462 436.085 275.16C435.47 270.859 428.713 283.763 428.713 282.534C428.713 281.305 425.027 283.763 425.027 286.221Z" fill="#001640" fill-opacity="0.1" />
  <path d="M430.556 267.786C429.327 269.015 426.87 267.172 423.184 266.557C417.655 261.641 423.184 265.328 423.184 263.485C423.184 261.641 425.027 265.328 427.484 265.328C429.941 267.172 429.327 264.099 431.784 263.485C434.242 262.87 431.17 261.027 433.627 259.183C436.085 257.34 436.085 259.798 440.385 262.256C444.686 264.714 440.385 263.485 440.385 266.557C440.385 269.63 438.542 267.172 437.928 265.328C437.313 263.485 436.699 263.485 433.627 267.172C432.317 266.844 432.208 266.316 432.462 265.879L430.556 267.786Z" fill="#001640" fill-opacity="0.1" />
  <path d="M539.294 215.554C538.27 214.53 536.222 212.236 536.222 211.253C534.379 209.205 530.816 204.248 531.307 200.806C531.922 196.505 534.993 208.18 536.222 207.566C537.451 206.951 538.679 206.337 540.522 209.409C542.365 212.482 541.137 211.253 541.137 213.711C541.137 216.169 542.98 216.783 542.365 219.241C541.751 221.699 541.751 220.47 541.137 221.699C540.522 222.928 539.294 219.856 539.294 216.783V215.554Z" fill="#001640" fill-opacity="0.1" />
  <path d="M533.15 227.23C534.993 229.688 534.379 230.302 536.222 229.688C535.608 228.868 534.133 226.984 533.15 226.001C531.922 224.772 529.464 218.627 533.15 227.23Z" fill="#001640" fill-opacity="0.1" />
  <path d="M526.393 213.711C527.621 216.169 527.007 214.94 530.079 219.241V224.157C529.26 223.952 527.621 223.42 527.621 222.928C527.621 222.314 526.393 220.47 526.393 219.241C526.393 218.012 524.55 218.012 523.935 215.554C523.321 213.097 520.864 211.253 526.393 213.711Z" fill="#001640" fill-opacity="0.1" />
  <path d="M548.509 197.734C549.737 200.192 548.509 198.963 548.509 205.108C548.509 205.517 549.246 207.32 552.195 211.253C554.038 214.94 550.966 213.096 550.352 213.711C549.737 214.326 548.509 213.711 547.28 213.096C546.051 212.481 547.894 210.638 546.666 208.18C542.98 208.18 542.365 205.108 545.437 200.806C546.666 198.349 545.437 199.577 544.208 197.734C542.98 195.89 542.365 197.734 542.365 195.276C542.365 192.818 542.365 193.432 538.679 187.902C536.836 186.673 534.993 189.131 533.15 182.371C531.922 179.299 533.15 180.528 533.15 179.913C533.15 179.299 531.307 179.913 523.935 175.612C516.563 171.311 522.092 171.311 522.092 170.082C522.092 168.852 523.935 171.311 531.307 167.624C534.993 165.78 533.15 167.624 536.836 171.311C540.522 174.998 538.679 173.769 538.679 175.612C538.679 177.456 540.522 178.07 541.137 178.685C541.751 179.299 542.365 179.914 545.437 187.902C545.437 190.974 545.437 189.745 548.509 197.734Z" fill="#001640" fill-opacity="0.1" />
  <path d="M557.11 195.276C557.724 198.348 557.11 197.734 558.338 200.806C560.796 200.806 560.181 198.963 560.796 197.734C561.41 196.505 562.639 195.276 557.11 184.215C553.424 180.528 555.881 182.371 555.881 181.143C555.881 179.914 557.11 178.685 557.11 176.841C557.11 174.998 557.11 175.612 552.195 173.154C548.509 172.54 550.352 171.311 552.195 168.853C554.038 166.394 550.352 167.624 550.352 166.395C550.352 165.166 550.352 164.551 546.051 160.864C542.365 160.864 544.208 161.479 543.594 162.093C543.103 162.585 542.57 161.888 542.365 161.479C541.956 160.864 540.768 160.372 539.294 163.322C539.294 165.166 542.365 165.166 546.666 168.853C547.894 171.31 545.437 172.539 544.208 174.383C542.98 176.226 544.208 175.612 550.352 175.612C556.495 175.612 552.195 177.455 552.195 179.913C552.195 182.371 552.809 181.757 554.652 189.745C557.11 192.818 556.495 192.203 557.11 195.276Z" fill="#001640" fill-opacity="0.1" />
  <path d="M560.157 163.383C559.931 161.007 558.096 161.891 554.652 159.021C556.7 157.997 561.41 156.194 563.867 157.177C566.939 158.406 568.168 159.021 566.325 163.322C565.194 165.96 561.06 163.051 560.157 163.383C560.173 163.551 560.181 163.734 560.181 163.937C560.181 164.082 560.18 164.224 560.177 164.364C560.592 165.313 561.706 167.055 563.867 170.082C564.482 172.539 565.096 171.311 566.325 175.612C567.553 179.914 566.325 176.841 566.325 181.143C566.325 185.444 566.325 182.371 568.168 184.215C570.011 186.059 570.011 184.215 570.011 186.673C570.011 189.131 570.011 191.589 568.782 192.203C567.553 192.818 565.096 192.203 566.325 189.745C567.553 187.287 566.939 188.516 563.867 184.829C562.024 181.757 563.253 183.601 563.253 181.143C563.253 178.685 562.639 175.612 563.253 173.154C563.867 170.696 562.024 171.311 560.796 170.082C559.625 168.91 560.127 167.182 560.177 164.364C559.908 163.748 559.933 163.466 560.157 163.383Z" fill="#001640" fill-opacity="0.1" />
  <path d="M523.321 186.058C522.707 187.287 522.707 187.902 525.778 190.974C524.959 190.974 523.444 191.466 523.935 193.432L530.079 196.505C531.307 195.276 525.778 190.974 528.85 192.203C528.85 190.36 528.236 190.36 527.621 187.902C527.007 185.444 526.393 186.673 525.778 186.058C525.164 185.444 523.935 184.829 523.321 186.058Z" fill="#001640" fill-opacity="0.1" />
  <path d="M577.997 175.612C576.768 172.54 577.383 174.383 577.383 167.624C577.997 166.804 579.349 165.411 579.84 166.395C580.454 167.624 579.84 168.853 580.454 171.311C581.069 173.769 582.912 166.395 583.526 168.853C584.14 171.31 585.369 168.853 585.369 173.154C585.369 177.456 585.983 176.841 577.997 175.612Z" fill="#001640" fill-opacity="0.1" />
  <path d="M594.584 160.25C594.584 163.322 594.584 162.093 597.042 168.853C597.042 169.672 597.41 171.065 598.885 170.082C600.728 168.852 601.342 168.853 603.185 167.624C605.028 166.395 604.414 166.395 606.257 163.937C608.1 161.479 604.414 165.166 597.042 157.177C593.356 155.334 594.584 157.177 594.584 160.25Z" fill="#001640" fill-opacity="0.1" />
  <path d="M595.813 148.574C600.728 151.032 597.042 149.803 601.342 152.876C602.775 154.31 605.765 157.177 606.257 157.177C606.871 157.177 606.257 155.334 606.257 151.647C606.257 147.96 603.185 155.948 601.342 148.574C599.499 146.731 600.113 146.731 598.885 144.887C597.656 143.044 593.356 142.429 590.284 142.429C587.212 142.429 587.826 144.273 595.813 148.574Z" fill="#001640" fill-opacity="0.1" />
  <path d="M595.813 131.368C595.813 129.525 592.127 128.91 589.67 130.139C589.055 130.549 587.581 131.737 586.598 133.212C585.369 135.055 589.67 134.441 591.513 134.441C593.356 134.441 592.741 136.284 597.042 134.441C599.499 131.983 595.813 133.212 595.813 131.368Z" fill="#001640" fill-opacity="0.1" />
  <path d="M563.867 131.368C558.953 132.597 563.253 135.67 566.325 136.284C566.325 137.308 567.062 139.603 570.011 140.586C573.697 141.815 571.854 140.586 575.54 136.284C576.154 133.212 574.925 133.212 571.854 134.441C568.782 135.67 571.854 133.212 571.854 131.368C571.854 129.525 568.782 130.139 563.867 131.368Z" fill="#001640" fill-opacity="0.1" />
  <path d="M581.683 155.948C580.454 153.49 579.84 155.334 577.383 152.876C576.768 152.466 576.031 151.278 577.997 149.803C580.454 149.189 583.526 146.731 583.526 148.574C583.526 150.418 585.983 151.032 585.369 152.876C584.755 154.719 585.369 154.105 584.755 155.948C584.14 157.792 582.912 158.406 581.683 155.948Z" fill="#001640" fill-opacity="0.1" />
  <path d="M554.038 141.2C555.881 139.971 551.581 136.284 548.509 130.139C548.099 130.549 547.034 131.737 546.051 133.212C544.823 135.055 549.737 135.055 550.352 139.357C550.843 142.798 549.328 139.971 548.509 138.128C547.894 137.923 545.069 136.653 538.679 133.212C530.693 128.91 536.836 134.441 541.137 140.586C546.051 143.658 543.594 142.429 550.352 142.429C557.11 142.429 552.195 142.429 554.038 141.2Z" fill="#001640" fill-opacity="0.1" />
  <path d="M523.321 138.128C525.778 135.67 523.321 134.441 523.321 131.368C522.911 131.368 521.846 131.737 520.864 133.212C519.635 135.055 519.635 135.67 518.406 138.128C517.178 140.586 516.563 138.128 513.491 136.284C511.648 136.899 508.577 139.357 506.119 140.586C503.662 141.815 504.276 143.658 503.048 146.116C501.819 148.574 505.505 148.574 508.577 144.887C511.648 141.2 509.191 143.658 509.805 141.2C510.42 138.742 512.877 141.2 513.491 140.586C514.106 139.971 515.335 140.586 519.635 140.586C523.935 140.586 520.864 140.586 523.321 138.128Z" fill="#001640" fill-opacity="0.1" />
  <path d="M530.079 157.177C529.26 156.768 526.884 155.088 523.935 151.647H523.321C524.345 150.623 529.219 149.435 540.522 152.876C544.823 154.105 541.137 157.177 532.536 158.406C528.113 159.389 529.055 157.997 530.079 157.177Z" fill="#001640" fill-opacity="0.1" />
  <path d="M506.119 159.021C511.034 157.792 508.577 159.021 513.491 160.864C514.311 161.274 516.44 162.462 518.406 163.937C520.864 165.78 520.864 168.853 516.563 166.395C514.72 166.395 513.491 167.624 508.577 166.395C503.662 165.166 508.577 168.853 503.048 171.311C502.193 170.944 501.484 170.796 500.882 170.823C501.801 172.367 503.35 174.067 504.276 175.612C506.119 178.685 507.348 176.226 508.577 179.913C509.805 183.6 506.119 187.288 508.577 186.673C509.805 187.902 505.505 193.432 504.276 187.902L504.276 187.902C503.048 182.371 503.048 182.371 501.819 180.528C499.81 177.178 498.738 174.631 498.225 172.773C497.567 173.893 497.027 175.367 496.29 176.841C494.447 180.528 496.904 182.371 495.061 184.215C493.355 185.922 494.808 183.415 491.62 186.935C493.093 188.454 495.82 191.34 499.362 195.276C504.891 201.421 500.59 197.734 503.048 195.276C503.457 195.276 504.891 195.522 507.348 196.505C510.42 197.734 508.577 199.577 507.348 200.192C506.12 200.806 506.119 200.806 504.277 205.107L504.276 205.108C502.433 209.409 503.048 206.337 499.362 203.879C495.676 201.421 496.29 202.65 493.833 200.806C491.375 198.963 492.604 198.348 490.761 195.276C489.748 193.588 488.921 192.456 488.28 191.474C486.698 194.499 486.914 196.505 486.461 196.505C485.846 196.505 483.389 195.89 480.932 195.276L480.932 195.276C478.474 194.661 478.474 193.432 482.16 187.902C484.559 184.303 483.055 184.868 482.728 185.024C482.658 185.057 482.642 185.072 482.728 185.024C482.859 184.951 483.226 184.733 484.003 184.215C487.689 181.757 488.918 181.142 489.532 175.612C490.147 170.082 489.532 173.154 490.761 168.853C491.99 164.551 489.532 167.624 500.59 162.093C509.191 160.864 501.205 160.25 506.119 159.021Z" fill="#001640" fill-opacity="0.1" />
  <path d="M512.166 208.212C512.144 206.819 512.328 203.879 513.491 203.879H516.563C518.406 203.879 518.406 206.337 519.635 206.337C520.864 206.337 522.092 205.108 520.864 208.18C519.635 211.253 520.249 211.867 518.406 213.711C516.563 215.554 515.949 213.096 513.491 213.096C507.348 211.253 506.119 209.409 507.348 209.409C508.306 209.409 510.898 208.631 512.166 208.212Z" fill="#001640" fill-opacity="0.1" />
  <path d="M508.577 224.157C509.396 225.181 511.526 227.721 513.491 229.688C514.474 226.738 517.997 228.459 519.635 229.688C521.022 230.798 519.903 230.78 518.259 230.596C516.51 231.613 514.248 232.43 513.491 230.916C513.491 232.76 512.263 233.374 509.805 233.374C507.84 233.374 508.167 232.555 508.577 232.145C508.167 232.555 507.102 233.374 506.119 233.374C504.891 233.374 503.048 234.603 503.048 233.374C503.048 232.145 500.59 229.688 501.205 229.073C501.819 228.458 501.205 226.001 501.819 226.001C502.311 226.001 506.529 224.772 508.577 224.157Z" fill="#001640" fill-opacity="0.1" />
  <path d="M485.232 230.916C486.461 229.687 485.232 228.458 486.461 224.157C486.051 223.747 484.618 223.174 482.16 224.157C480.317 226.615 480.317 226.001 478.474 224.157C476.631 222.314 475.402 222.928 473.559 227.23V232.145C473.559 235.218 474.788 233.374 475.402 230.916C476.017 228.458 477.86 230.916 480.317 231.531C482.775 232.145 484.003 232.145 485.232 230.916Z" fill="#001640" fill-opacity="0.1" />
  <path d="M461.273 249.966C465.573 249.966 461.273 248.122 463.73 241.363C463.116 241.978 461.764 243.083 461.273 242.592C460.658 241.977 458.815 242.592 456.358 245.664C453.901 248.737 454.515 247.508 445.3 247.508C440.385 246.279 443.457 246.893 442.228 250.58C441 254.267 443.457 254.882 445.3 254.267C447.143 253.653 447.143 252.424 456.358 252.424C461.273 254.881 456.972 249.966 461.273 249.966Z" fill="#001640" fill-opacity="0.1" />
  <path d="M423.184 252.424C421.341 254.267 422.569 253.653 428.713 252.424L430.556 255.496C432.399 255.496 431.784 254.267 433.013 251.809C434.856 250.58 433.013 249.966 431.784 249.966C430.556 249.966 428.713 250.58 426.87 249.966C425.027 249.351 425.027 250.58 423.184 252.424Z" fill="#001640" fill-opacity="0.1" />
  <path d="M447.757 236.447C448.986 232.146 442.228 237.676 439.156 236.447C437.723 235.423 434.979 232.883 435.47 230.916C436.085 228.458 437.928 229.688 442.228 230.916C446.529 232.145 443.457 230.916 447.143 229.073C450.829 227.23 449.6 227.23 450.215 228.458C450.829 229.687 454.515 228.458 461.273 233.374C464.344 237.061 460.044 235.218 459.43 235.218C458.815 235.218 457.587 235.832 455.129 237.676C452.672 239.519 452.672 241.363 450.215 241.363C447.757 241.363 446.529 240.748 447.757 236.447Z" fill="#001640" fill-opacity="0.1" />
  <path d="M456.972 218.627C454.515 217.398 454.515 219.856 450.829 219.856C449.6 219.856 446.774 220.224 445.3 221.699C443.457 223.543 441 221.699 437.313 222.314C433.627 222.928 436.085 219.856 441 216.783C444.931 214.325 443.457 214.94 442.228 215.554C442.843 214.53 446.283 212.236 455.129 211.253C459.43 213.096 456.972 211.253 463.116 213.711C469.259 216.168 467.416 215.554 464.959 218.012C464.959 220.47 463.116 220.47 456.972 218.627Z" fill="#001640" fill-opacity="0.1" />
  <path d="M445.3 200.806C445.914 197.12 447.143 200.806 447.757 200.192C448.354 199.595 450.689 197.839 457.575 197.738C457.78 197.735 457.988 197.734 458.201 197.734C458.611 197.324 459.675 196.382 460.658 195.89C461.887 195.276 465.573 195.89 471.102 197.734C476.631 199.577 471.102 198.963 476.631 203.264C482.16 207.566 476.631 205.108 484.003 207.566C491.375 210.024 486.461 209.409 491.99 213.096C497.519 216.783 495.061 214.94 498.133 218.012C501.205 221.085 496.29 218.627 489.532 218.012C487.075 216.783 487.075 218.627 484.003 218.627C480.931 218.627 484.003 216.783 480.932 215.554C477.86 214.326 477.86 217.398 474.788 213.711C471.716 210.024 472.331 212.482 471.102 211.253C469.873 210.024 469.259 210.638 464.959 209.409C460.658 208.181 466.187 206.337 466.802 203.879C467.293 201.912 461.273 198.963 458.201 197.734C457.988 197.734 457.78 197.735 457.575 197.738C457.075 197.742 455.736 199.375 455.129 200.192C455.129 200.601 454.023 202.281 449.6 205.722C442.228 209.409 444.686 204.493 445.3 200.806Z" fill="#001640" fill-opacity="0.1" />
  <path d="M463.116 186.673C461.273 185.444 458.201 184.829 453.901 186.673C453.491 187.492 452.303 189.254 450.829 189.745C448.986 190.36 448.372 185.444 449.6 184.829C450.829 184.215 452.058 182.371 460.044 178.685H469.873C477.245 178.685 474.788 178.685 476.631 180.528C478.474 182.371 476.017 183.6 473.56 184.829L473.559 184.829C471.102 186.059 472.331 182.371 467.416 186.673C463.73 188.516 464.959 187.902 463.116 186.673Z" fill="#001640" fill-opacity="0.1" />
  <path d="M478.474 170.082C476.836 168.853 473.928 165.411 475.402 161.479H478.474C479.703 161.479 479.703 162.708 484.003 160.864C487.689 158.406 486.461 162.093 484.003 167.624C480.317 170.696 482.16 168.853 478.474 170.082Z" fill="#001640" fill-opacity="0.1" />
  <path d="M491.99 155.948C486.46 154.719 488.304 154.105 485.232 151.032L489.532 148.574C490.351 149.394 493.833 151.401 501.205 152.876C510.42 154.719 503.662 155.334 503.048 155.948C502.433 156.563 501.819 157.177 491.99 155.948Z" fill="#001640" fill-opacity="0.1" />
  <path d="M599.212 203.286C618.483 187.112 623.018 181.256 652.491 179.561C667.227 180.344 669.666 177.343 693.299 183.515C717.092 189.729 712.582 209.707 738.654 230.043C764.727 250.378 749.423 285.965 747.723 311.949C746.023 337.933 726.185 354.314 688.777 364.482C651.369 374.65 655.336 344.146 640.6 323.246C625.864 302.346 579.954 305.17 572.585 264.5C565.217 223.829 580.916 218.641 599.212 203.286Z" fill="#FFF5ED" />
  <path d="M653.106 261.675C657.598 240.768 636.824 236.248 618.858 235.683C606.506 234.539 600.33 238.508 596.399 254.894C592.469 271.281 606.506 279.757 618.858 282.582C631.209 285.407 648.614 282.582 653.106 261.675Z" fill="#FFE54A" />
  <path d="M685.318 226.364C688.192 206.061 675.575 197.094 657.831 197.094C637.048 193.675 632.647 205.641 629.213 217.038C625.778 228.434 641.245 236.924 653.252 240.97C665.26 245.016 682.444 246.668 685.318 226.364Z" fill="#FFE54A" />
  <path d="M635.72 364.324C635.298 354.211 630.972 351.332 628.862 351.156L545.503 318.5H442.623C437.875 318.5 434.182 323.767 429.434 331.141C424.685 338.515 431.016 348.522 434.182 360.11C437.348 371.698 441.041 389.606 454.758 395.399C468.475 401.193 481.137 410.147 486.941 417.521C492.744 424.895 544.975 453.864 559.748 450.177C571.566 447.228 593.865 424.017 603.537 412.781C614.441 400.842 636.142 374.437 635.72 364.324Z" fill="#001640" fill-opacity="0.1" />
  <path d="M554.841 290.463C542.994 270.631 530.406 282.872 512.917 287.405C500.506 291.883 465.528 303.27 444.654 308.937C423.78 314.603 432.242 324.803 433.371 331.602C434.499 338.402 445.782 362.2 452.552 376.366C459.322 390.532 464.964 382.599 476.247 379.199C487.53 375.8 543.397 350.958 559.919 345.427C581.921 338.061 571.59 325.369 569.333 318.57C567.077 311.77 562.657 303.546 554.841 290.463Z" fill="#C51640" />
  <path d="M542.156 287.674C541.156 285.174 539.156 284.674 535.156 285.174C533.156 286.508 530.056 289.274 533.656 289.674C538.155 290.174 535.156 290.674 539.156 291.174C543.156 291.674 543.156 290.174 542.156 287.674Z" fill="#001640" fill-opacity="0.1" />
  <path d="M546.5 298C548 296.5 548.5 296.5 546.5 294.5C545.833 295 544.4 296 544 296C543.5 296 539.156 296.5 537.5 296C535.845 295.5 536.5 299.5 540.5 299.5C544.5 299.5 545 299.5 546.5 298Z" fill="#001640" fill-opacity="0.1" />
  <path d="M545 311C546 314 551 314 554 313.5L556 311.5C555.333 310.833 553.6 309.6 552 310C550 310.5 550.5 311 549 304.5C547.5 298 547.5 305 546.5 306.5C545.5 308 544 308 545 311Z" fill="#001640" fill-opacity="0.1" />
  <path d="M550.5 323C550 319.5 549 321.5 545 321C544.052 321 541.925 321.2 541 322C539.845 323 539.156 323 535.156 323C531.156 323 533.656 322 531 323C528.345 324 530.5 326 533.656 327C536.811 328 536 327 540.5 327C545 327 541.5 327 545 330.5C548.5 334 547.5 330.5 550.5 329C553.5 327.5 551 326.5 550.5 323Z" fill="#001640" fill-opacity="0.1" />
  <path d="M529 295C531 293 528.5 293 527 289.674H523.5C522 289.674 522.5 291.174 522.5 292.5C522.5 293.826 523 294 519 298C516 300 521 301.5 523.5 301.5C526 301.5 527 301.5 530 299.5C530 298.5 527 297 529 295Z" fill="#001640" fill-opacity="0.1" />
  <path d="M536 313.5C538.345 312.5 536.5 311.5 535.156 308.5C534.104 308.167 531.9 307.6 531.5 308C531 308.5 531 311 531 311.5C531 312 525 311 523.5 311C522 311 523.5 313.5 527 315C530.5 316.5 529 314.5 532 315C535 315.5 533.656 314.5 536 313.5Z" fill="#001640" fill-opacity="0.1" />
  <path d="M506 295C509.5 294 507.5 294.5 512.5 294.5C512.5 295.667 512.4 298.1 512 298.5L512 298.5C511.5 299 511 299.5 510 299.5C509.2 299.5 508.333 301.833 508 303C506.167 302.667 501.9 302.2 499.5 303C496.5 304 496.5 303.5 494.5 303C492.5 302.5 492 301.5 491 298C490 294.5 492.5 297 499.5 298C506.5 299 502.5 296 506 295Z" fill="#001640" fill-opacity="0.1" />
  <path d="M518 310C520 309 518 308 516 306.5C515.333 307 513.7 308.1 512.5 308.5C511 309 512 311 514 311.5C516 312 516 311 518 310Z" fill="#001640" fill-opacity="0.1" />
  <path d="M525.5 321C526.5 319 525.5 319 523.5 316.5C522.333 316.5 520 317 520 319C520 321.5 518 320 516 322C514 324 514 325.5 516 327C518 328.5 518 328 521 328C524 328 521 325 522 322.5C523 320 524.5 323 525.5 321Z" fill="#001640" fill-opacity="0.1" />
  <path d="M533.656 333.5C533.656 332 531.5 331.5 529 330.5C527.833 330.833 525.2 332.2 524 335C522.5 338.5 522 335.5 518 335.5C514 335.5 513.5 337 512.5 337.5C511.5 338 514 339 522 340C530 341 522 339 524.5 337.5C527 336 526 337 533.656 333.5Z" fill="#001640" fill-opacity="0.1" />
  <path d="M506 325C502 324.5 502 322 504 321C504.333 320.333 505.2 318.8 506 318C507 317 506.5 317 510.5 315.5C514.5 314 514 318 513.5 318C513 318 512 319 511 322C510 325 510 325.5 506 325Z" fill="#001640" fill-opacity="0.1" />
  <path d="M503 315C504 315 504 312.5 504 310C502.667 310 499.9 310.3 499.5 311.5C499 313 497 311.5 493.5 313.5C490 315.5 493.5 315 500 316.5C503.5 317.5 502 315 503 315Z" fill="#001640" fill-opacity="0.1" />
  <path d="M492.5 305.5C495 303 491 304.5 486 303C485 303.833 483.1 305.7 483.5 306.5C484 307.5 484.5 308.5 485.5 309C486.5 309.5 487 308.5 489 308C491 307.5 490 308 492.5 305.5Z" fill="#001640" fill-opacity="0.1" />
  <path d="M497.5 326C499 325 496.5 324 499.5 322C498.167 322.167 495.3 322.5 494.5 322.5C493.5 322.5 489 323 487.5 324C486 325 488 327 489 327C490 327 491 328 495.5 328C500 328 496 327 497.5 326Z" fill="#001640" fill-opacity="0.1" />
  <path d="M506 335C506 332.5 508 332 507.5 330.5L506 331.5C505.333 331.5 503.6 331.7 502 332.5C500 333.5 501.5 333.5 501.5 335.5C501.5 337.5 500.5 336 497 336C493.5 336 497.5 337.5 498.5 338C499.5 338.5 499.5 338.5 503 339L503 339C506.5 339.5 506 337.5 506 335Z" fill="#001640" fill-opacity="0.1" />
  <path d="M512 344.5C514 343 511 343 509 343C507.5 343.667 504.4 344.9 504 344.5C503.5 344 500 344.5 498.5 345.5C497 346.5 499.5 348 502 348.5C504.5 349 504 348 509 347C514 346 510 346 512 344.5Z" fill="#001640" fill-opacity="0.1" />
  <path d="M487.5 319C488.5 321.5 482.5 320 483 319.5C481.667 319.5 478.7 319.3 477.5 318.5C476 317.5 476.5 316.5 477 312.5C477.5 308.5 479.5 311.5 482 312.5C484.5 313.5 483.5 313.5 486 315.5C488.5 317.5 486.5 316.5 487.5 319Z" fill="#001640" fill-opacity="0.1" />
  <path d="M468.5 313.5C471 311.5 471 312.5 471 308.5L465.5 309C464.333 309.667 461.6 311.3 460 312.5C458 314 459.5 314.5 464 316.5C467.5 316.5 466 315.5 468.5 313.5Z" fill="#001640" fill-opacity="0.1" />
  <path d="M474 330.618C473.659 330.539 473.603 330.5 474 330.5V330.618C475.377 330.936 481.401 331.897 481 333.5C480.5 335.5 482 334.5 479.5 336C477 337.5 474 338 472 338C470 338 467 337.5 468.5 335.5C470 333.5 471 335 472 335C472.8 335 473.667 332.667 474 331.5V330.618Z" fill="#001640" fill-opacity="0.1" />
  <path d="M460 324C464 326 464 327.5 462.5 329C461 330.5 462 330.5 459 331.5C456 332.5 456 336 455 332.5C454 329 453 327 454 327C455 327 455 328 456.5 328C457.522 328 456.803 325.824 458.729 323.943C457.769 323.839 457.415 323.574 460 323C459.481 323.297 459.065 323.616 458.729 323.943C459.106 323.984 459.577 324 460 324Z" fill="#001640" fill-opacity="0.1" />
  <path d="M452 321C450.5 322 449 322.5 449.5 323C448.5 322.333 446.5 320.7 446.5 319.5C446.5 318 446 316.5 446.5 316.5C447 316.5 447.5 313.5 452 315C456.5 316.5 454 316.5 452 321Z" fill="#001640" fill-opacity="0.1" />
  <path d="M471 327C472 326 471 325 470 323V321C470.333 321.333 472.1 322.4 476.5 324C482 326 477 326 476.5 326.5C476 327 475 327 474 328C473 329 470 328 471 327Z" fill="#001640" fill-opacity="0.1" />
  <path d="M457.5 344.5C458 342.5 457 344 456 340C457 340 459.2 340.4 460 342C461 344 461 342 465.5 343C469.1 343.8 468 345 467 345.5C466.5 346.5 465.5 348.7 465.5 349.5C465.5 350.5 464 349.5 461 349.5C458 349.5 460 348.5 457.5 348.5C455 348.5 457 346.5 457.5 344.5Z" fill="#001640" fill-opacity="0.1" />
  <path d="M481.5 348C482 346.5 481 344.5 479.5 342C478.833 342 477.1 343 475.5 347C475.5 350.5 475.5 348 475 350C474.5 352 474 349.5 472 351C470 352.5 473 354.5 475.5 356.5C478 358.5 476.5 355 479.5 353C482.5 351 481 351.5 482 351C483 350.5 483.5 348 481.5 348Z" fill="#001640" fill-opacity="0.1" />
  <path d="M464 362C464 360 464 359.5 462.5 356.5C463.333 356 465.1 355.7 465.5 358.5C466 361.5 467 360.5 468.5 360.5C470 360.5 470 359.5 472 362C474 364.5 471 363.5 471 364.5C471 365.5 467 365 465 364.5C463 364 464 364 464 362Z" fill="#001640" fill-opacity="0.1" />
  <path d="M486 355.5C486.5 354.5 489 351 487.5 349.5C488.333 348.667 490 347.2 490 348C490 349 491 348.5 493.5 349.5C496 350.5 495.5 352 495.5 353C495.5 354 493.5 354.5 491 354.5C488.5 354.5 489 356.5 487.5 357C486 357.5 485.5 356.5 486 355.5Z" fill="#001640" fill-opacity="0.1" />
  <path d="M486 342C484.5 341 487 340.5 486.5 336.5C487.667 336.167 490 335.6 490 336C490 336.5 490 338 492.5 339C494.5 339.8 494.667 342 494.5 343C493.167 343.667 490.2 344.9 489 344.5C487.5 344 487.5 343 486 342Z" fill="#001640" fill-opacity="0.1" />
  <path d="M457.697 360.674C456.007 356.439 443.614 326.793 437.628 312.5C436.396 312.5 433.403 313.559 431.291 317.794C428.65 323.088 436.044 338.44 437.628 342.145C439.213 345.851 449.775 368.085 450.303 371.261C450.831 374.438 454.528 381.849 460.337 383.967C466.147 386.084 468.787 381.32 474.069 379.732C479.35 378.143 499.418 369.673 514.206 363.85C528.993 358.027 561.737 350.086 572.827 346.38C581.7 343.416 576.524 332.793 572.827 327.852L547.478 336.852C527.409 344.792 484.631 361.838 474.069 366.497C460.866 372.32 459.809 365.968 457.697 360.674Z" fill="#001640" fill-opacity="0.1" />
  <path d="M622.468 334.004C617.955 328.905 600.47 319.842 590.882 311.344C567.757 292.047 557.604 311.344 552.528 318.142C547.452 324.94 510.79 368.56 496.689 383.288C482.588 398.017 498.381 404.815 504.585 411.046C510.79 417.278 524.89 425.208 544.631 437.671C564.372 450.134 571.705 432.573 578.473 424.076C585.242 415.578 621.34 367.993 631.492 356.663C641.645 345.334 626.98 339.102 622.468 334.004Z" fill="#A30000" />
  <path d="M574.5 315C574 311.5 571.5 314.5 567 315C564.5 317.667 561.4 322.8 569 322C578 319.5 572 325.5 579 326.5C586 327.5 582 325.5 585 323C588 320.5 584 320 582 317C580 314 575 318.5 574.5 315Z" fill="#001640" fill-opacity="0.1" />
  <path d="M590.5 334C588.5 331 591.5 332.5 594 331C594.5 331 595.6 331.3 596 332.5C596.5 334 599 333.5 600 335.5C601 337.5 599.5 339.5 598 340.5C596.5 341.5 594 340 594 337.5C594 335 592.5 337 590.5 334Z" fill="#001640" fill-opacity="0.1" />
  <path d="M617 346C617.5 344.5 618 344 614 342C613.5 342.833 611.9 344.8 609.5 346C606.5 347.5 608 348 606.5 347.5C605 347 604 347 601.5 348.5C599 350 604.5 354.5 605 355C605.5 355.5 606.5 353 608.5 351.5C610.5 350 610 349.5 615.5 349.5C621 349.5 616.5 347.5 617 346Z" fill="#001640" fill-opacity="0.1" />
  <path d="M590 357.5C592 356 589.5 356 592.5 349.5L592 349C591 348.5 588.7 347.9 587.5 349.5C586 351.5 586 351.5 583 351.5C580 351.5 579.5 354.5 579.5 356.5C579.5 358.5 581.5 357 585 357.5C588.5 358 588 359 590 357.5Z" fill="#001640" fill-opacity="0.1" />
  <path d="M592 373.5C593.5 374.5 594 372 599 366.5H597C596 366.5 594.5 367.5 593.5 370C592.5 372.5 590.5 372.5 592 373.5Z" fill="#001640" fill-opacity="0.1" />
  <path d="M581 342.5L581 342.5C581.333 341.833 582.2 340.3 583 339.5C584 338.5 583 336.5 581.5 337C580 337.5 579 337.5 578 340.5C577 343.5 579 343 581 342.5Z" fill="#001640" fill-opacity="0.1" />
  <path d="M571.5 341C574 340 572 339.5 575 333C573.833 333.833 570.6 336.1 567 338.5C565 340 566 339.5 563 341C560 342.5 560.5 342.5 556.5 342.5C552.5 342.5 553 344 555.5 344.5C558 345 557.5 346 561.5 346.5C565.5 347 563 346 567 342.5C568 340.5 569 342 571.5 341Z" fill="#001640" fill-opacity="0.1" />
  <path d="M565 330C565.5 327.5 566 326.5 564.5 326.5C564 326.833 562.9 327.7 562.5 328.5C562 329.5 562.5 330 556.5 331C551.5 331 555.5 332.5 556.5 333L556.5 333C557.5 333.5 558.5 334 562.5 335C566.5 336 564 334.5 565 330Z" fill="#001640" fill-opacity="0.1" />
  <path d="M540 348.5C543 348.5 542.5 346.5 542.5 342.5C541.667 343.167 539.4 344.5 537 344.5C534 344.5 534.5 346.5 533 347.5C531.5 348.5 528 352.5 527.5 353C527 353.5 529 351.5 540 348.5Z" fill="#001640" fill-opacity="0.1" />
  <path d="M526.5 363C528.5 361.5 525 360.5 526.5 357.5L528.5 361C528.833 360.5 529.7 359.8 530.5 361C531.5 362.5 532 363 532 367C532 371 530 368 527.5 368C525 368 524.5 369.5 522 371C519.5 372.5 519.5 373.5 518.5 373C517.5 372.5 517 371.5 516.5 370C516 368.5 517.5 367.5 518.5 367C519.5 366.5 520 366.5 523 365.5C526 364.5 524.5 364.5 526.5 363Z" fill="#001640" fill-opacity="0.1" />
  <path d="M547.5 350.5C544.5 350.5 544 353 541.5 355C541.667 355.333 541.5 356.5 539.5 358.5L539.5 358.5C540 359.5 540 359.5 543 360.5C546 361.5 543.5 359.5 549.5 357.5C555.5 355.5 550.5 357.5 552 359C553.5 360.5 555 359.5 557.5 359.5C560 359.5 559 357.5 557.5 353C556 348.5 556.5 351.5 554 351.5C551.5 351.5 552 352.5 551.5 351.5C551 350.5 550.5 350.5 547.5 350.5Z" fill="#001640" fill-opacity="0.1" />
  <path d="M572 358.5C572 356 571.5 356.5 572 354.5L570.5 358.5C570 358.5 568.6 359 567 361C565 363.5 569 362.5 570.5 363C572 363.5 572 361 572 358.5Z" fill="#001640" fill-opacity="0.1" />
  <path d="M584 374.5C586 373.5 586 371.5 585.5 370L585 369C584.667 368.333 583.5 366.7 581.5 365.5C579 364 578 365.5 576 366.5C574 367.5 571.5 370 570.5 371C569.5 372 572 370 578 370C584 370 579.5 375.5 584 374.5Z" fill="#001640" fill-opacity="0.1" />
  <path d="M586.5 387C587 386.5 587.5 384.5 590 382C588.833 382 586.2 382.2 585 383C583.5 384 582 383.5 580.5 384C579.3 384.4 578.334 385.833 578 386.5C578.333 386.667 579.1 387.5 579.5 389.5C580 392 580.5 390 585.5 389.5C590.5 389 586 387.5 586.5 387Z" fill="#001640" fill-opacity="0.1" />
  <path d="M557.5 374.5C558.5 374.5 561 371 561.5 367C559.833 367.667 556.3 369 555.5 369C554.5 369 554 371 553 373.5C552 376 550.5 375.5 547.5 375.5C544.5 375.5 545 377 545.5 378.5C546 380 548.5 380 550.5 380C552.5 380 554 378.5 555.5 375.5C557 372.5 556.5 374.5 557.5 374.5Z" fill="#001640" fill-opacity="0.1" />
  <path d="M570.5 384C572 381 571.5 382 572.5 379.5C571.667 379.667 568.9 380.6 564.5 383C563 386 562.5 385 560.5 385C558.5 385 559 385 556.5 387C554 389 556.5 388.5 561.5 390C566.5 391.5 563 389 566 388.5C569 388 569 387 570.5 384Z" fill="#001640" fill-opacity="0.1" />
  <path d="M577 398V394.5C576 392.5 572.5 393 571 393.5C569.5 394 568 393.5 565.5 394C563 394.5 567 394.5 568 396.5C569 398.5 569 396.5 575 400.5C581 404.5 577 399 577 398Z" fill="#001640" fill-opacity="0.1" />
  <path d="M533 384C536.5 384 536.5 380.5 537 377.5C536 377.833 533.8 378.8 533 380C532 381.5 531 381 526.5 382C522 383 526.5 385 527.5 385C528.5 385 529.5 384 533 384Z" fill="#001640" fill-opacity="0.1" />
  <path d="M517 381.5C517.5 379 517.5 380.5 514.5 378.5C514 378.5 512.8 378.8 512 380C511 381.5 511 382 509 383C507 384 508 384 513 387C518.2 387 516.5 386.333 515 386C515.5 385.333 516.6 383.5 517 381.5Z" fill="#001640" fill-opacity="0.1" />
  <path d="M516.5 395C516 394.5 513 394 509 391C507.833 391.333 506.2 392.3 509 393.5C512.5 395 509 395 512 398C515 401 513 399 516 399.5C519 400 516.5 400.5 519.5 402.5C522.5 404.5 521.5 403.5 524 406.5C526.5 409.5 526.5 409 526.5 404.001V404C525.5 403 524 402.5 524 400.5C524 398.5 523 399.5 519.5 396.5C517.5 395.5 517 395.5 516.5 395Z" fill="#001640" fill-opacity="0.1" />
  <path d="M538.5 389.5C537 390.5 534 392 532 392.5L530.5 395.5H536C539 395.5 537 395 541 395C545 395 542 396 545 397.5C547 398.5 546.5 396.5 553 394.5C559.5 392.5 550.5 393.5 549.5 390C548.5 387.5 547.5 388.5 546.5 388.5C545.5 388.5 544.5 388.5 542.5 389.5C540.5 390.5 540 388.5 538.5 389.5Z" fill="#001640" fill-opacity="0.1" />
  <path d="M570.5 403.5C569.5 403 569 402.5 564.5 400.5C564.167 400 563.1 399 561.5 399C559.5 399 558 399.5 562.5 404C562 405.5 562.5 405.5 565.5 408C568.5 410.5 566 409 567 410.5C568 412 567 412 570 413.5C573 415 571.5 412.5 572.5 412C573.5 411.5 573.5 409.5 574 408C574.5 406.5 570.5 410 570.5 409.5C570.5 409 570.5 408.5 570.5 403.5Z" fill="#001640" fill-opacity="0.1" />
  <path d="M549.5 409.5C549.5 407 551.5 406.5 550.5 404L549.5 402.5C548.833 402.5 547.3 402.9 546.5 404.5L546.499 404.502C545.5 406.5 545.5 406.5 544.5 407L539.5 409.5C536.5 411 539.5 412 541 413.5C542.5 415 544.5 416 549.5 416C554 415.5 551.5 414.5 550.5 413.5C549.5 412.5 549.5 412 549.5 409.5Z" fill="#001640" fill-opacity="0.1" />
  <path d="M564.5 417C566 414.5 563 415 560.5 413.5C560 413.5 559 413.7 559 414.5C559 415.5 559 417 555.5 419C554.5 420 555 422.5 559 421.5C561.5 421.5 560.5 421 562.5 420.5C564.5 420 563 419.5 564.5 417Z" fill="#001640" fill-opacity="0.1" />
  <path d="M618.03 357.219C620.996 352.608 627.033 344.818 629.68 341.5C631.092 341.5 634.235 342.758 635.505 347.788C637.094 354.075 629.68 359.839 627.033 363.506C624.385 367.174 596.318 399.66 595.789 402.804C595.259 405.947 584.668 417.474 575.136 428.478C565.604 439.481 567.722 438.433 562.427 440.529C557.131 442.625 552.365 441.053 546.54 438.433C540.715 435.813 531.183 428.478 520.592 423.238C510 417.998 501.527 409.091 494.114 402.804C488.183 397.774 489.524 392.324 490.936 390.228C491.642 389.355 493.902 388.133 497.291 390.228C501.527 392.848 534.89 420.618 540.715 424.286C546.54 427.954 555.013 430.05 562.427 428.478C569.84 426.906 583.079 403.328 587.316 398.088C591.552 392.848 614.323 362.982 618.03 357.219Z" fill="#001640" fill-opacity="0.1" />
  <path d="M597 252.5C597 257.5 597.409 260 599.5 262.5C602.178 265.703 602.5 265.5 606.15 268.277C611.319 272.209 615.793 273.615 615.793 273.615L630.792 276.817C630.792 276.817 636.685 276.284 642.577 273.615C648.47 270.946 646.863 272.547 649.006 268.277C651.148 264.007 653.291 262.405 653.291 263.473C653.291 264.54 653.291 265.074 652.22 268.811C651.148 272.547 650.613 274.148 645.791 279.486C640.97 284.824 639.363 283.756 635.078 284.824C630.792 285.892 625.321 287.034 620.5 286.5C615.679 285.966 609.9 283.135 606.15 281C602.4 278.865 596.143 272.304 594 267.5C591.857 262.696 597 249.831 597 252.5Z" fill="#001640" fill-opacity="0.05" />
  <path d="M628 225.5C626.929 222.831 628.649 215.5 631.5 212.5C631.5 215.5 631.429 216.264 632.5 220C633.571 223.736 637.756 224.507 637.756 224.507C637.756 224.507 640.435 226.642 645.791 229.311C651.148 231.98 658.112 233.581 658.112 233.581H670.433C670.433 233.581 677.933 234.649 680.076 231.98C682.219 229.311 683.29 222.905 683.29 221.838C683.29 220.77 685.433 220.237 685.969 221.838C686.504 223.439 685.969 223.973 685.969 227.176C685.969 230.378 685.571 232.264 684.5 236C683.429 239.736 682.464 242.865 675.5 245C668.536 247.135 668.321 245.966 663.5 246.5C658.679 247.034 653.75 244.068 650 243C646.25 241.932 638.821 237.169 634 234.5C629.179 231.831 629.071 228.169 628 225.5Z" fill="#001640" fill-opacity="0.05" />
  <path d="M707.397 347.276C712.753 341.939 710.611 333.932 711.146 327.527C707.932 322.189 704.718 332.864 704.718 340.337C704.718 347.81 696.147 347.276 691.861 351.013C687.576 354.749 672.041 351.013 665.077 347.276C658.113 343.54 666.148 337.135 665.077 327.527C664.005 317.918 656.505 318.452 650.613 308.844C644.72 299.236 635.078 300.304 624.364 296.567C613.65 292.831 599.722 284.824 595.436 283.223C591.15 281.621 585.794 270.946 586.865 279.486C587.936 288.027 604.007 290.162 615.793 298.169C627.578 306.175 635.613 306.709 649.006 316.851C662.398 326.993 655.434 336.601 658.648 346.209C661.862 355.817 667.755 355.817 674.719 358.486C681.683 361.155 683.29 357.952 689.719 355.817C696.147 353.682 702.04 352.614 707.397 347.276Z" fill="#001640" fill-opacity="0.05" />
  <path d="M685.969 276.817C674.719 262.939 677.398 261.338 670.433 253.865C675.79 253.865 683.29 259.736 689.719 268.277C696.147 276.817 696.683 273.615 707.397 283.223C718.11 292.831 718.11 288.561 721.325 298.169C724.539 307.777 724.539 316.851 733.11 313.114C741.681 309.378 736.324 292.297 736.324 284.824C736.324 277.351 745.431 256 748.645 259.736C751.859 263.473 747.038 268.811 745.431 279.486C743.824 290.162 743.824 292.297 741.681 300.837C739.538 309.378 739.003 314.182 736.324 320.054C733.646 325.925 726.682 327.527 724.539 320.054C722.396 312.581 719.718 300.837 707.397 292.297C695.075 283.756 697.218 290.696 685.969 276.817Z" fill="#001640" fill-opacity="0.05" />
  <path d="M651.704 200.64C646.315 200.102 646.854 201.177 642.543 202.789C639.309 202.789 637.693 206.55 638.232 208.699C638.77 210.849 642.543 209.774 646.854 208.699C651.165 207.625 649.009 208.699 657.632 208.699C666.254 208.699 664.098 209.237 671.104 211.923C678.11 214.61 679.726 210.849 679.726 209.774C679.726 208.699 678.649 208.699 675.415 204.938C672.182 201.177 670.026 203.864 666.254 201.714C662.482 199.565 657.093 201.177 651.704 200.64Z" fill="#FFF5ED" fill-opacity="0.6" />
  <path d="M636.615 242.012C633.382 238.788 616.137 239.325 609.131 242.012C604.281 243.284 604.281 247.922 611.287 249.534C618.293 251.146 621.526 253.295 629.609 255.445C637.693 257.594 646.854 256.519 646.854 251.683C646.854 246.848 639.848 245.236 636.615 242.012Z" fill="#FFF5ED" fill-opacity="0.6" />
  <path d="M98.867 217.234L284.442 206.094L308.385 457.959L114.26 476.412L98.867 217.234Z" fill="#001640" fill-opacity="0.1" />
  <rect x="91.3103" y="220.654" width="195" height="253" transform="rotate(-5.43021 91.3103 220.654)" fill="white" />
  <path d="M220.181 264.1L233.468 225.959L243.184 247.716M249.43 261.704L243.184 247.716M225.291 249.43L243.184 247.716M254.718 244.039L270.394 242.165" stroke="#D50000" stroke-width="5" />
  <path d="M115.671 253.532C119.328 253.797 127.44 254.383 130.632 254.614C133.824 254.845 145.028 249.64 150.232 247.008L154.569 256.346L175.167 248.812L185.14 249.534M120.981 291.013L152.333 287.265L172.281 288.708L199.253 283.139L216.707 284.402L233.387 275.582L251.514 281.405M125.437 326.427C132.007 323.393 145.138 317.424 145.109 317.823C145.08 318.222 155.496 322.084 160.707 323.965C163.865 324.193 170.88 324.701 173.673 324.903C176.466 325.105 190.495 316.428 197.16 312.064L214.182 319.311L225.087 314.084L230.357 317.473L244.933 310.005L262.988 316.825M127.683 364.688L152.588 359.973L166.581 367.502C168.768 364.987 173.955 359.814 177.204 359.247C181.266 358.538 182.69 359.644 185.682 359.86C188.076 360.033 195.468 358.563 198.865 357.806L211.116 361.7L228.012 349.888L246.175 355.212L256.936 351.98L267.619 356.764M132.74 405.66L144.649 393.487C147.08 396.838 152.57 403.184 155.079 401.761C157.588 400.339 167.457 396.975 172.077 395.471C175.566 398.063 182.594 402.549 182.796 399.756C182.998 396.963 196.804 390.91 203.682 388.233L224.441 399.259C226.401 397.563 230.929 394.114 233.351 393.888C235.774 393.662 240.89 395.937 243.145 397.103C245.713 393.947 251.546 387.685 254.339 387.887C257.132 388.089 266.947 391.472 271.505 393.139" stroke="#C8C5B7" stroke-width="2" />
  <path d="M53.3698 181.905L237.489 190.679L234.119 433.908L40.7892 431.23L53.3698 181.905Z" fill="#001640" fill-opacity="0.1" />
  <rect x="47.5525" y="175.257" width="195" height="253" transform="rotate(0.793784 47.5525 175.257)" fill="white" />
  <path d="M65.5464 396.815L151.642 399.749M67.1129 371.124L195.177 375.818M67.2084 345.139L179.093 349.148M71.1275 312.779L206.546 318.943M69.6541 286.99L190.266 293.254M71.0238 254.631L194.479 259.423M76.2168 213.348L127.011 214.323" stroke="#C8C5B7" stroke-opacity="0.3" stroke-width="7" stroke-linecap="round" />
  <path d="M101.321 191.724L285.609 167.224L324.245 410.278L135.372 449.116L101.321 191.724Z" fill="#001640" fill-opacity="0.1" />
  <rect x="100.651" y="190.189" width="195" height="253" transform="rotate(-9.56755 100.651 190.189)" fill="white" />
  <path d="M222.321 224.224L232.821 185.224L244.081 206.224M251.321 219.724L244.081 206.224M226.359 209.224L244.081 206.224M255.321 201.724L270.821 198.724M262 192L264.5 209.224" stroke="#FD96A0" stroke-width="5" stroke-linecap="round" stroke-linejoin="round" />
  <path d="M161.321 406.224L246.321 392.224M157.821 380.724L284.321 360.224M152.821 355.224L263.321 337.224M150.321 322.724L284.321 302.224M143.821 297.724L263.321 280.224M138.821 265.724L260.821 246.224M135.821 224.224L185.821 215.224" stroke="#C8C5B7" stroke-opacity="0.3" stroke-width="7" stroke-linecap="round" />
  <path d="M81.6041 206.691C79.0388 207.713 77.7878 210.621 78.8099 213.186C79.832 215.752 82.7402 217.003 85.3055 215.98L81.6041 206.691ZM170.924 181.867C173.489 180.844 174.74 177.936 173.718 175.371C172.696 172.806 169.788 171.555 167.222 172.577L170.924 181.867ZM85.3055 215.98L170.924 181.867L167.222 172.577L81.6041 206.691L85.3055 215.98Z" fill="#001640" fill-opacity="0.1" />
  <path d="M79.8768 201.469C77.3115 202.491 76.0605 205.399 77.0826 207.964C78.1047 210.53 81.0129 211.781 83.5782 210.758L79.8768 201.469ZM169.197 176.645C171.762 175.622 173.013 172.714 171.991 170.149C170.969 167.584 168.06 166.333 165.495 167.355L169.197 176.645ZM83.5782 210.758L169.197 176.645L165.495 167.355L79.8768 201.469L83.5782 210.758Z" fill="#FD96A0" />
  <path d="M81.649 205.876L124.458 188.819" stroke="#FD96A0" stroke-width="12" stroke-linecap="round" />
  <path d="M126 183.5C127.5 184.333 130.301 187.3 129.5 192.5" stroke="#FEC8CD" stroke-linecap="round" />
  <path d="M79.5 201C81.5 201.667 85.0999 204.7 83.5 211.5" stroke="#FEC8CD" stroke-linecap="round" />
  <path d="M78 205C78.9093 205.317 80.5462 206.762 79.8187 210" stroke="#FEC8CD" stroke-linecap="round" />
  <path d="M1095.5 328.5V286.5L840.5 413V434L1005 481L1095.5 328.5Z" fill="#001640" fill-opacity="0.05" />
  <path d="M841 375C829 388 835.666 402.334 841 413L1000 459L1097 287C1091.4 270.2 1094.67 243.334 1097 232L951 190L841 375Z" fill="white" />
  <path d="M1000.5 459.5L987.5 416.5L841 375.5C829.4 387.1 836.167 405.333 841 413L1000.5 459.5Z" fill="#001640" fill-opacity="0.1" />
  <path d="M838.5 384.5L990.5 429.5L1092.5 257.5M844 379L990.5 423L1093.5 247M838.5 392.5L993.5 437L1092.5 268M838.5 401.5L996.5 445L1093.5 276M841 408L998.5 452L1093.5 284" stroke="#C8C5B7" stroke-opacity="0.5" stroke-width="2" />
  <path d="M1071.5 320.5L1062 315.833L1076 294L1084 298.5L1071.5 320.5Z" fill="#FD96A0" />
  <path d="M1109 271L1088 263L1071 291.5L1092.5 303L1109 271Z" fill="#FEC8CD" />
  <path d="M944.658 199.724L841 375L988 417L1097 232L962.951 192.52C955.923 190.45 948.388 193.418 944.658 199.724Z" fill="url(#paint0_linear)" />
  <path d="M842 375L988.5 417.5L1005 388L860 343.5L842 375Z" fill="#A15E65" fill-opacity="0.2" />
  <path d="M945.138 279.909L953.283 262.983L948.121 261.095L945.08 267.414L936.766 264.373L939.807 258.054L934.644 256.166L926.499 273.093L931.662 274.981L934.934 268.18L943.248 271.22L939.976 278.021L945.138 279.909Z" fill="white" />
  <path d="M955.413 284.025C960.395 285.847 964.778 283.929 966.439 280.477C968.099 277.026 966.587 272.981 961.604 271.159C956.682 269.359 952.282 271.241 950.621 274.693C948.96 278.144 950.491 282.225 955.413 284.025ZM957.074 280.574C955.063 279.838 954.599 278.087 955.393 276.438C956.175 274.814 957.933 273.875 959.944 274.61C961.985 275.357 962.478 277.119 961.696 278.743C960.903 280.393 959.115 281.32 957.074 280.574Z" fill="white" />
  <path d="M983.748 294.03L993.939 283.343L989.166 281.597L983.241 288.264L984.004 279.709L979.892 278.205L973.426 284.674L974.699 276.306L969.957 274.572L968.351 288.399L973.333 290.221L979.686 283.621L978.766 292.208L983.748 294.03Z" fill="white" />
  <path d="M1002.57 301.271C1004.28 301.897 1005.59 301.959 1006.38 301.711L1006.9 298.438C1006.68 298.535 1006.09 298.501 1005.58 298.314C1004.77 298.018 1004.55 297.309 1004.89 296.599L1007.04 292.132L1009.98 293.208L1011.62 289.808L1008.67 288.732L1010.29 285.382L1005.69 283.703L1004.08 287.052L1001.68 286.174L1000.05 289.575L1002.45 290.453L999.772 296.01C998.636 298.37 999.628 300.196 1002.57 301.271Z" fill="white" />
  <path d="M1014.83 305.754C1019.81 307.576 1024.19 305.657 1025.85 302.206C1027.51 298.755 1026 294.71 1021.02 292.888C1016.1 291.088 1011.7 292.97 1010.03 296.421C1008.37 299.873 1009.9 303.954 1014.83 305.754ZM1016.49 302.303C1014.48 301.567 1014.01 299.816 1014.81 298.167C1015.59 296.543 1017.35 295.604 1019.36 296.339C1021.4 297.086 1021.89 298.848 1021.11 300.472C1020.32 302.121 1018.53 303.049 1016.49 302.303Z" fill="white" />
  <path d="M922.211 305.989C927.043 307.756 930.79 306.351 933.131 304.64L929.544 301.239C928.236 302.343 925.988 302.834 924.067 302.131C920.796 300.935 919.51 297.958 920.841 295.192C922.172 292.426 925.509 291.139 928.781 292.336C930.702 293.038 931.875 294.781 931.888 296.367L937.185 296.215C936.939 293.499 935.469 290.246 930.637 288.479C924.484 286.228 918.104 288.043 915.589 293.271C913.085 298.473 916.058 303.738 922.211 305.989Z" fill="white" />
  <path d="M939.991 312.491C944.973 314.313 949.356 312.395 951.017 308.943C952.677 305.492 951.165 301.447 946.182 299.625C941.26 297.825 936.86 299.707 935.199 303.159C933.538 306.61 935.069 310.691 939.991 312.491ZM941.652 309.04C939.641 308.304 939.178 306.553 939.971 304.904C940.753 303.28 942.511 302.341 944.522 303.076C946.563 303.823 947.056 305.585 946.274 307.209C945.481 308.858 943.693 309.786 941.652 309.04Z" fill="white" />
  <path d="M964.845 321.222L972.99 304.296L968.398 302.617L965.455 308.733C964.87 307.086 963.596 305.994 962.005 305.412C958.373 304.084 954.422 305.474 952.493 309.483C950.49 313.645 952.242 316.972 955.814 318.278C957.435 318.871 959.174 318.85 960.936 318.122L960.252 319.543L964.845 321.222ZM958.975 315.375C957.144 314.706 956.356 313.045 957.235 311.217C958.114 309.39 960.014 308.742 961.845 309.412C962.836 309.774 963.829 310.645 964.111 311.524L962.304 315.28C961.386 315.72 959.966 315.738 958.975 315.375Z" fill="white" />
  <path d="M975.048 325.312C977.269 326.124 979.926 326.47 981.892 325.905L981.114 322.756C979.986 323.119 978.032 322.852 977.011 322.479C974.91 321.71 974.15 320.209 974.43 318.968L984.755 322.744L985.158 321.907C987.16 317.745 985.321 313.939 981.029 312.369C976.497 310.712 971.935 312.416 970.226 315.968C968.308 319.953 970.576 323.677 975.048 325.312ZM981.564 318.593L975.591 316.409C976.198 315.586 977.565 314.654 979.576 315.389C981.707 316.168 981.859 317.686 981.564 318.593Z" fill="white" />
  <path fill-rule="evenodd" clip-rule="evenodd" d="M888 206.897V208H887.977C887.197 226.876 866.463 242 841 242C815.537 242 794.803 226.876 794.023 208H794V206.897V186H803.232C811.796 177.38 825.525 171.794 841 171.794C856.475 171.794 870.204 177.38 878.768 186H888V206.897Z" fill="#001640" fill-opacity="0.05" />
  <path d="M913.5 144.5C913.5 160.392 900.194 173.5 883.5 173.5C866.806 173.5 853.5 160.392 853.5 144.5C853.5 128.608 866.806 115.5 883.5 115.5C900.194 115.5 913.5 128.608 913.5 144.5Z" stroke="#C8C5B7" stroke-width="9" />
  <rect x="794" y="100" width="94" height="86" fill="#C8C5B7" />
  <ellipse cx="841" cy="100.5" rx="47" ry="16.5" fill="#C4C4C4" />
  <mask id="mask0" mask-type="alpha" maskUnits="userSpaceOnUse" x="794" y="84" width="94" height="33">
    <ellipse cx="841" cy="100.5" rx="47" ry="16.5" fill="#C8C5B7" />
  </mask>
  <g mask="url(#mask0)">
    <ellipse cx="841" cy="108.5" rx="38" ry="14.5" fill="#5E2A2A" />
  </g>
  <ellipse cx="841" cy="185.5" rx="47" ry="16.5" fill="#C8C5B7" />
  <path class="steam-animation" d="M807 79.5C809.833 77.6667 815.1 71.8 813.5 63C811.5 52 801 55.5 801.5 39C801.9 25.8 809.667 16.1667 813.5 13M831.5 69C834.667 66.8333 840.7 60.6 839.5 53C838 43.5 826 42 827.5 29.5C828.7 19.5 836 10 839.5 6.5M864 72.5C861.5 69.1667 856.7 60.6 857.5 53C858.5 43.5 863.5 41.5 861.5 29.5M872 55C875 49.3333 880.1 35.5 876.5 25.5C872 13 861.5 14 861.5 1.5" stroke="#001640" stroke-opacity="0.1" stroke-width="3" stroke-linecap="round" />
  <defs>
    <linearGradient id="paint0_linear" x1="969" y1="189" x2="969" y2="417" gradientUnits="userSpaceOnUse">
      <stop stop-color="#FEC8CD" />
      <stop offset="1" stop-color="#FFC7CC" />
    </linearGradient>
  </defs>
</svg>
