<svg width="80" height="80" viewBox="0 0 80 80" fill="none" xmlns="http://www.w3.org/2000/svg">
<path fill-rule="evenodd" clip-rule="evenodd" d="M55.6997 49.1452L23.0747 68.5716L65.3179 65.6971L68.5715 22.9829L55.6997 49.1452Z" fill="white" stroke="#001640" stroke-width="4" stroke-linejoin="round"/>
<path fill-rule="evenodd" clip-rule="evenodd" d="M65.3869 65.6678L61.7561 40.5381L51.8662 53.6337L65.3869 65.6678Z" fill="white" stroke="#001640" stroke-width="4" stroke-linejoin="round"/>
<path fill-rule="evenodd" clip-rule="evenodd" d="M65.4359 65.6681L38.8361 63.5742L23.2158 68.5172L65.4359 65.6681Z" fill="white" stroke="#001640" stroke-width="4" stroke-linejoin="round"/>
<path fill-rule="evenodd" clip-rule="evenodd" d="M23.2531 68.5222L29.898 46.6924L15.2756 49.8277L23.2531 68.5222Z" fill="white" stroke="#001640" stroke-width="4" stroke-linejoin="round"/>
<path fill-rule="evenodd" clip-rule="evenodd" d="M51.8636 53.7057L45.7493 29.6895L28.2515 46.137L51.8636 53.7057Z" fill="white" stroke="#001640" stroke-width="4" stroke-linejoin="round"/>
<path fill-rule="evenodd" clip-rule="evenodd" d="M67.1841 30.0282L50.6438 16.4814L46.0378 31.4135L67.1841 30.0282Z" fill="white" stroke="#001640" stroke-width="4" stroke-linejoin="round"/>
<path fill-rule="evenodd" clip-rule="evenodd" d="M59.4487 11.6514L49.7206 17.0423L43.5833 11.5791L59.4487 11.6514Z" fill="white" stroke="#001640" stroke-width="4" stroke-linejoin="round"/>
<path fill-rule="evenodd" clip-rule="evenodd" d="M11.4285 57.1502L15.5037 49.6972L12.2072 40.8184L11.4285 57.1502Z" fill="white" stroke="#001640" stroke-width="4" stroke-linejoin="round"/>
<path fill-rule="evenodd" clip-rule="evenodd" d="M11.988 40.538L15.3048 49.9722L29.7166 46.7298L46.1705 31.3957L50.8139 16.6056L43.5024 11.4287L31.0719 16.0937C27.1555 19.7465 19.5559 26.9739 19.2819 27.1099C19.0108 27.2487 14.2636 36.2461 11.988 40.538Z" fill="white" stroke="#001640" stroke-width="4" stroke-linejoin="round"/>
<path fill-rule="evenodd" clip-rule="evenodd" d="M23.6341 23.5902C32.122 15.1509 43.0643 10.1649 47.2636 14.4134C51.4602 18.662 47.0098 28.9869 38.5218 37.4232C30.0339 45.8596 19.2272 51.1204 15.0308 46.8718C10.8315 42.6262 15.1462 32.0265 23.6341 23.5902V23.5902Z" fill="white" stroke="#001640" stroke-width="4" stroke-linejoin="round"/>
<path fill-rule="evenodd" clip-rule="evenodd" d="M23.2532 68.5135L29.8462 46.6143L51.7424 53.6682C43.8255 61.1125 35.0203 67.4058 23.2532 68.5135Z" fill="white" stroke="#001640" stroke-width="4" stroke-linejoin="round"/>
<path fill-rule="evenodd" clip-rule="evenodd" d="M46.1992 31.3527L51.8203 53.68C58.4336 46.7071 64.3691 39.2107 67.276 29.9385L46.1992 31.3527V31.3527Z" fill="white" stroke="#001640" stroke-width="4" stroke-linejoin="round"/>
<path fill-rule="evenodd" clip-rule="evenodd" d="M67.2186 30.0513C69.4682 23.2432 69.9873 13.4765 59.3793 11.6631L50.675 16.4843L67.2186 30.0513V30.0513Z" fill="white" stroke="#001640" stroke-width="4" stroke-linejoin="round"/>
<path fill-rule="evenodd" clip-rule="evenodd" d="M11.4285 57.052C11.74 68.2882 19.8241 68.4557 23.2677 68.5543L15.3134 49.9258L11.4285 57.052Z" fill="white" stroke="#001640" stroke-width="4" stroke-linejoin="round"/>
<path fill-rule="evenodd" clip-rule="evenodd" d="M46.2307 31.3876C51.3125 34.5198 61.5543 40.8102 61.7619 40.9259C62.0846 41.1081 66.1775 34.005 67.1062 29.9907L46.2307 31.3876V31.3876Z" fill="white" stroke="#001640" stroke-width="4" stroke-linejoin="round"/>
<path fill-rule="evenodd" clip-rule="evenodd" d="M29.8376 46.6143L38.6515 63.6663C43.863 60.832 47.9441 57.3788 51.6819 53.6797L29.8376 46.6143Z" fill="white" stroke="#001640" stroke-width="4" stroke-linejoin="round"/>
<path fill-rule="evenodd" clip-rule="evenodd" d="M15.2788 49.949L14.03 64.8609C16.3863 68.0885 19.6281 68.369 23.0284 68.1174C20.5683 61.9774 15.6538 49.7003 15.2788 49.949V49.949Z" fill="white" stroke="#001640" stroke-width="4" stroke-linejoin="round"/>
<path fill-rule="evenodd" clip-rule="evenodd" d="M50.6235 16.5217L68.1329 18.9858C67.1985 15.0149 64.3288 12.4525 59.4374 11.6514L50.6235 16.5217Z" fill="white" stroke="#001640" stroke-width="4" stroke-linejoin="round"/>
</svg>
